<svg width="20" height="18" viewBox="0 0 20 18" fill="none" xmlns="http://www.w3.org/2000/svg">
<path d="M12.1151 6.02L13.0645 6.94L3.71534 16H2.76598V15.08L12.1151 6.02V6.02ZM15.83 0C15.572 0 15.3037 0.1 15.1077 0.29L13.2193 2.12L17.089 5.87L18.9774 4.04C19.073 3.94749 19.1489 3.8376 19.2007 3.71662C19.2525 3.59565 19.2791 3.46597 19.2791 3.335C19.2791 3.20403 19.2525 3.07435 19.2007 2.95338C19.1489 2.8324 19.073 2.72251 18.9774 2.63L16.5627 0.29C16.3563 0.09 16.0983 0 15.83 0V0ZM12.1151 3.19L0.702148 14.25V18H4.57183L15.9848 6.94L12.1151 3.19V3.19Z" fill="black"/>
</svg>
