<svg width="27" height="27" viewBox="0 0 27 27" fill="none" xmlns="http://www.w3.org/2000/svg">
<path d="M7.25 1C7.6644 1 8.06183 1.18814 8.35485 1.52302C8.64788 1.85791 8.8125 2.31211 8.8125 2.78571V6.35714C8.8125 6.83074 8.64788 7.28495 8.35485 7.61983C8.06183 7.95472 7.6644 8.14286 7.25 8.14286C6.8356 8.14286 6.43817 7.95472 6.14515 7.61983C5.85212 7.28495 5.6875 6.83074 5.6875 6.35714V2.78571C5.6875 2.31211 5.85212 1.85791 6.14515 1.52302C6.43817 1.18814 6.8356 1 7.25 1ZM7.25 18.8571C7.6644 18.8571 8.06183 19.0453 8.35485 19.3802C8.64788 19.7151 8.8125 20.1693 8.8125 20.6429V24.2143C8.8125 24.6879 8.64788 25.1421 8.35485 25.477C8.06183 25.8119 7.6644 26 7.25 26C6.8356 26 6.43817 25.8119 6.14515 25.477C5.85212 25.1421 5.6875 24.6879 5.6875 24.2143V20.6429C5.6875 20.1693 5.85212 19.7151 6.14515 19.3802C6.43817 19.0453 6.8356 18.8571 7.25 18.8571ZM19.75 9.92857C20.1644 9.92857 20.5618 10.1167 20.8549 10.4516C21.1479 10.7865 21.3125 11.2407 21.3125 11.7143V15.2857C21.3125 15.7593 21.1479 16.2135 20.8549 16.5484C20.5618 16.8833 20.1644 17.0714 19.75 17.0714C19.3356 17.0714 18.9382 16.8833 18.6451 16.5484C18.3521 16.2135 18.1875 15.7593 18.1875 15.2857V11.7143C18.1875 11.2407 18.3521 10.7865 18.6451 10.4516C18.9382 10.1167 19.3356 9.92857 19.75 9.92857ZM26 13.5H21.3125H26Z" fill="black"/>
<path d="M26 4.57143H8.8125M5.6875 4.57143H1M26 22.4286H8.8125M5.6875 22.4286H1M18.1875 13.5H1M26 13.5H21.3125M7.25 1C7.6644 1 8.06183 1.18814 8.35485 1.52302C8.64788 1.85791 8.8125 2.31211 8.8125 2.78571V6.35714C8.8125 6.83074 8.64788 7.28495 8.35485 7.61983C8.06183 7.95472 7.6644 8.14286 7.25 8.14286C6.8356 8.14286 6.43817 7.95472 6.14515 7.61983C5.85212 7.28495 5.6875 6.83074 5.6875 6.35714V2.78571C5.6875 2.31211 5.85212 1.85791 6.14515 1.52302C6.43817 1.18814 6.8356 1 7.25 1ZM7.25 18.8571C7.6644 18.8571 8.06183 19.0453 8.35485 19.3802C8.64788 19.7151 8.8125 20.1693 8.8125 20.6429V24.2143C8.8125 24.6879 8.64788 25.1421 8.35485 25.477C8.06183 25.8119 7.6644 26 7.25 26C6.8356 26 6.43817 25.8119 6.14515 25.477C5.85212 25.1421 5.6875 24.6879 5.6875 24.2143V20.6429C5.6875 20.1693 5.85212 19.7151 6.14515 19.3802C6.43817 19.0453 6.8356 18.8571 7.25 18.8571ZM19.75 9.92857C20.1644 9.92857 20.5618 10.1167 20.8549 10.4516C21.1479 10.7865 21.3125 11.2407 21.3125 11.7143V15.2857C21.3125 15.7593 21.1479 16.2135 20.8549 16.5484C20.5618 16.8833 20.1644 17.0714 19.75 17.0714C19.3356 17.0714 18.9382 16.8833 18.6451 16.5484C18.3521 16.2135 18.1875 15.7593 18.1875 15.2857V11.7143C18.1875 11.2407 18.3521 10.7865 18.6451 10.4516C18.9382 10.1167 19.3356 9.92857 19.75 9.92857Z" stroke="black" stroke-linecap="round" stroke-linejoin="round"/>
</svg>
