<svg width="210" height="57" viewBox="0 0 210 57" fill="none" xmlns="http://www.w3.org/2000/svg">
<path fill-rule="evenodd" clip-rule="evenodd" d="M1 1H201.614V48.3566H1V1Z" stroke="#2B2B2A" stroke-width="0.5" stroke-miterlimit="22.9256"/>
<path d="M201.614 1L209.751 10.7618" stroke="#2B2B2A" stroke-width="0.2" stroke-miterlimit="22.9256"/>
<path d="M209.751 10.7618L209.249 55.0653" stroke="#2B2B2A" stroke-width="0.2" stroke-miterlimit="22.9256"/>
<path d="M201.614 48.3566L209.249 55.0653" stroke="#2B2B2A" stroke-width="0.2" stroke-miterlimit="22.9256"/>
<path d="M209.249 55.0653L7.22571 56.5759" stroke="#2B2B2A" stroke-width="0.5" stroke-miterlimit="22.9256"/>
<path d="M1 48.3566L7.2257 56.5759" stroke="#2B2B2A" stroke-width="0.2" stroke-miterlimit="22.9256"/>
<path d="M50.8759 20.5304H47.9565V16.3694H59.0165V20.5304H56.097V32.2282H50.8759V20.5304ZM69.293 16.3694H73.0904L79.0953 32.2282H74.1113L73.5891 30.8015H68.7948L68.2725 32.2282H63.2886L69.293 16.3694ZM72.26 27.3064L71.1919 24.5246L70.1239 27.3064H72.26ZM84.1983 16.3694H89.4669V28.0672H93.8341V32.2282H84.1983V16.3694ZM99.4117 16.3694H104.538V20.0308L107.528 16.3694H113.723L108.146 23.621L114.008 32.2282H107.908L104.538 27.3304V32.2282H99.4117V16.3694ZM119.23 16.3694H128.557V20.5304H124.285V22.2895H128.486V26.2365H124.285V28.0672H128.723V32.2282H119.23V16.3694ZM134.894 16.3694H140.352C141.365 16.3694 142.302 16.5042 143.165 16.7733C144.027 17.0429 144.775 17.4393 145.407 17.9625C146.04 18.4852 146.535 19.1314 146.891 19.9002C147.247 20.669 147.425 21.5527 147.425 22.5511C147.425 23.3438 147.314 24.0174 147.093 24.5722C146.871 25.1269 146.626 25.5865 146.357 25.9513C146.04 26.3633 145.685 26.7121 145.289 26.9972L148.256 32.2282H142.322L139.949 28.21V32.2282H134.894V16.3694ZM139.949 24.1678H140.21C140.811 24.1678 141.321 24.0334 141.741 23.7638C142.16 23.4942 142.37 23.0426 142.37 22.4087C142.37 21.7743 142.16 21.3227 141.741 21.0531C141.321 20.784 140.811 20.6492 140.21 20.6492H139.949V24.1678Z" fill="#2B2B2A"/>
<path d="M201.614 12.1911L209.644 20.2465" stroke="#2B2B2A" stroke-width="0.2" stroke-miterlimit="22.9256"/>
<path d="M201.614 24.6783L209.518 31.3276" stroke="#2B2B2A" stroke-width="0.2" stroke-miterlimit="22.9256"/>
<path d="M201.614 36.861L209.381 43.4092" stroke="#2B2B2A" stroke-width="0.2" stroke-miterlimit="22.9256"/>
<path d="M10.1309 48.3566L17.1668 56.5017" stroke="#2B2B2A" stroke-width="0.2" stroke-miterlimit="22.9256"/>
<path d="M22.6948 48.3566L29.2354 56.4112" stroke="#2B2B2A" stroke-width="0.2" stroke-miterlimit="22.9256"/>
<path d="M34.1714 48.4388L41.2074 56.5839" stroke="#2B2B2A" stroke-width="0.2" stroke-miterlimit="22.9256"/>
<path d="M46.3149 48.4388L52.8555 56.4933" stroke="#2B2B2A" stroke-width="0.2" stroke-miterlimit="22.9256"/>
<path d="M57.7916 48.1077L64.8275 56.2528" stroke="#2B2B2A" stroke-width="0.2" stroke-miterlimit="22.9256"/>
<path d="M70.3556 48.1077L76.8962 56.1622" stroke="#2B2B2A" stroke-width="0.2" stroke-miterlimit="22.9256"/>
<path d="M81.072 47.8929L87.2977 56.1121" stroke="#2B2B2A" stroke-width="0.2" stroke-miterlimit="22.9256"/>
<path d="M90.6233 47.8929L97.6592 56.0379" stroke="#2B2B2A" stroke-width="0.2" stroke-miterlimit="22.9256"/>
<path d="M103.187 47.8929L109.728 55.9474" stroke="#2B2B2A" stroke-width="0.2" stroke-miterlimit="22.9256"/>
<path d="M114.664 47.975L121.7 56.1201" stroke="#2B2B2A" stroke-width="0.2" stroke-miterlimit="22.9256"/>
<path d="M126.807 47.975L133.348 56.0295" stroke="#2B2B2A" stroke-width="0.2" stroke-miterlimit="22.9256"/>
<path d="M138.448 47.8554L144.673 56.0746" stroke="#2B2B2A" stroke-width="0.2" stroke-miterlimit="22.9256"/>
<path d="M147.578 47.8554L154.614 56.0005" stroke="#2B2B2A" stroke-width="0.2" stroke-miterlimit="22.9256"/>
<path d="M160.142 47.8554L166.683 55.9099" stroke="#2B2B2A" stroke-width="0.2" stroke-miterlimit="22.9256"/>
<path d="M171.619 47.9375L178.655 56.0826" stroke="#2B2B2A" stroke-width="0.2" stroke-miterlimit="22.9256"/>
<path d="M182.501 47.9375L189.042 55.992" stroke="#2B2B2A" stroke-width="0.2" stroke-miterlimit="22.9256"/>
<path d="M192.593 47.9375L199.133 55.992" stroke="#2B2B2A" stroke-width="0.2" stroke-miterlimit="22.9256"/>
</svg>
