<svg width="76" height="17" viewBox="0 0 76 17" fill="none" xmlns="http://www.w3.org/2000/svg">
<path d="M3.32309 5.192H0.371094V0.991999H11.5551V5.192H8.60309V17H3.32309V5.192ZM15.3381 0.991999H19.1781L25.2501 17H20.2101L19.6821 15.56H14.8341L14.3061 17H9.26609L15.3381 0.991999ZM18.3381 12.032L17.2581 9.224L16.1781 12.032H18.3381ZM25.6095 0.991999H30.9375V12.8H35.3535V17H25.6095V0.991999ZM36.2033 0.991999H41.3873V4.688L44.4113 0.991999H50.6753L45.0353 8.312L50.9633 17H44.7953L41.3873 12.056V17H36.2033V0.991999ZM51.4377 0.991999H60.8697V5.192H56.5497V6.968H60.7977V10.952H56.5497V12.8H61.0377V17H51.4377V0.991999ZM62.4767 0.991999H67.9967C69.0207 0.991999 69.9647 1.128 70.8287 1.4C71.7087 1.672 72.4687 2.072 73.1087 2.6C73.7487 3.128 74.2447 3.784 74.5967 4.568C74.9647 5.336 75.1487 6.224 75.1487 7.232C75.1487 8.032 75.0367 8.712 74.8127 9.272C74.5887 9.832 74.3407 10.296 74.0687 10.664C73.7487 11.08 73.3887 11.432 72.9887 11.72L75.9887 17H69.9887L67.5887 12.944V17H62.4767V0.991999ZM67.5887 8.864H67.8527C68.4607 8.864 68.9727 8.728 69.3887 8.456C69.8207 8.184 70.0367 7.728 70.0367 7.088C70.0367 6.448 69.8207 5.992 69.3887 5.72C68.9727 5.448 68.4607 5.312 67.8527 5.312H67.5887V8.864Z" fill="white"/>
</svg>
