<svg width="160" height="44" viewBox="0 0 160 44" fill="none" xmlns="http://www.w3.org/2000/svg">
<path fill-rule="evenodd" clip-rule="evenodd" d="M1 1H153.562V37.0135H1V1Z" stroke="#2B2B2A" stroke-width="0.5" stroke-miterlimit="22.9256"/>
<path d="M153.562 1L159.75 8.4236" stroke="#2B2B2A" stroke-width="0.2" stroke-miterlimit="22.9256"/>
<path d="M159.75 8.42358L159.368 42.1153" stroke="#2B2B2A" stroke-width="0.2" stroke-miterlimit="22.9256"/>
<path d="M153.562 37.0134L159.368 42.1152" stroke="#2B2B2A" stroke-width="0.2" stroke-miterlimit="22.9256"/>
<path d="M159.368 42.1152L5.7345 43.264" stroke="#2B2B2A" stroke-width="0.5" stroke-miterlimit="22.9256"/>
<path d="M1 37.0134L5.73448 43.264" stroke="#2B2B2A" stroke-width="0.2" stroke-miterlimit="22.9256"/>
<path d="M38.9294 15.8523H36.7092V12.688H45.1201V15.8523H42.8999V24.7482H38.9294V15.8523ZM52.9351 12.688H55.8229L60.3895 24.7482H56.5993L56.2022 23.6632H52.5562L52.159 24.7482H48.3689L52.9351 12.688ZM55.1914 21.0053L54.3792 18.8898L53.567 21.0053H55.1914ZM64.2702 12.688H68.2768V21.5839H71.598V24.7482H64.2702V12.688ZM75.8396 12.688H79.7379V15.4724L82.0121 12.688H86.7229L82.4815 18.2026L86.9396 24.7482H82.3008L79.7379 21.0235V24.7482H75.8396V12.688ZM90.9105 12.688H98.0035V15.8523H94.7547V17.1901H97.9495V20.1917H94.7547V21.5839H98.1298V24.7482H90.9105V12.688ZM102.823 12.688H106.974C107.744 12.688 108.457 12.7905 109.113 12.9951C109.768 13.2002 110.337 13.5016 110.818 13.8995C111.299 14.297 111.675 14.7884 111.946 15.3731C112.217 15.9577 112.352 16.6298 112.352 17.389C112.352 17.9918 112.268 18.5041 112.1 18.926C111.931 19.3478 111.745 19.6974 111.54 19.9748C111.299 20.2881 111.029 20.5533 110.728 20.7702L112.984 24.7482H108.472L106.667 21.6925V24.7482H102.823V12.688ZM106.667 18.6185H106.866C107.323 18.6185 107.711 18.5163 108.03 18.3112C108.349 18.1062 108.508 17.7628 108.508 17.2807C108.508 16.7983 108.349 16.4548 108.03 16.2498C107.711 16.0452 107.323 15.9427 106.866 15.9427H106.667V18.6185Z" fill="#2B2B2A"/>
<path d="M153.562 9.5105L159.668 15.6364" stroke="#2B2B2A" stroke-width="0.2" stroke-miterlimit="22.9256"/>
<path d="M153.562 19.0067L159.573 24.0633" stroke="#2B2B2A" stroke-width="0.2" stroke-miterlimit="22.9256"/>
<path d="M153.562 28.2714L159.468 33.2511" stroke="#2B2B2A" stroke-width="0.2" stroke-miterlimit="22.9256"/>
<path d="M7.94373 37.0134L13.2943 43.2076" stroke="#2B2B2A" stroke-width="0.2" stroke-miterlimit="22.9256"/>
<path d="M17.4984 37.0134L22.4724 43.1387" stroke="#2B2B2A" stroke-width="0.2" stroke-miterlimit="22.9256"/>
<path d="M26.226 37.076L31.5766 43.2702" stroke="#2B2B2A" stroke-width="0.2" stroke-miterlimit="22.9256"/>
<path d="M35.4608 37.076L40.4348 43.2013" stroke="#2B2B2A" stroke-width="0.2" stroke-miterlimit="22.9256"/>
<path d="M44.1886 36.8242L49.5392 43.0184" stroke="#2B2B2A" stroke-width="0.2" stroke-miterlimit="22.9256"/>
<path d="M53.7432 36.8242L58.7171 42.9495" stroke="#2B2B2A" stroke-width="0.2" stroke-miterlimit="22.9256"/>
<path d="M61.8927 36.6609L66.6272 42.9114" stroke="#2B2B2A" stroke-width="0.2" stroke-miterlimit="22.9256"/>
<path d="M69.1562 36.6609L74.5069 42.855" stroke="#2B2B2A" stroke-width="0.2" stroke-miterlimit="22.9256"/>
<path d="M78.7108 36.6609L83.6848 42.7861" stroke="#2B2B2A" stroke-width="0.2" stroke-miterlimit="22.9256"/>
<path d="M87.4385 36.7233L92.7891 42.9174" stroke="#2B2B2A" stroke-width="0.2" stroke-miterlimit="22.9256"/>
<path d="M96.6733 36.7233L101.647 42.8485" stroke="#2B2B2A" stroke-width="0.2" stroke-miterlimit="22.9256"/>
<path d="M105.525 36.6323L110.26 42.8828" stroke="#2B2B2A" stroke-width="0.2" stroke-miterlimit="22.9256"/>
<path d="M112.469 36.6323L117.82 42.8265" stroke="#2B2B2A" stroke-width="0.2" stroke-miterlimit="22.9256"/>
<path d="M122.024 36.6323L126.998 42.7576" stroke="#2B2B2A" stroke-width="0.2" stroke-miterlimit="22.9256"/>
<path d="M130.751 36.6948L136.102 42.889" stroke="#2B2B2A" stroke-width="0.2" stroke-miterlimit="22.9256"/>
<path d="M139.027 36.6948L144.001 42.8201" stroke="#2B2B2A" stroke-width="0.2" stroke-miterlimit="22.9256"/>
<path d="M146.701 36.6948L151.675 42.8201" stroke="#2B2B2A" stroke-width="0.2" stroke-miterlimit="22.9256"/>
</svg>
