<svg width="60" height="60" viewBox="0 0 60 60" fill="none" xmlns="http://www.w3.org/2000/svg">
<circle cx="30" cy="30" r="30" fill="#E9ECF2"/>
<path d="M29.4998 30.3112C33.4517 30.3112 36.6554 27.1075 36.6554 23.1556C36.6554 19.2037 33.4517 16 29.4998 16C25.5479 16 22.3442 19.2037 22.3442 23.1556C22.3442 27.1075 25.5479 30.3112 29.4998 30.3112Z" stroke="black" stroke-width="2"/>
<path d="M36.6556 33.1735H37.1593C38.2056 33.1738 39.2157 33.5561 40 34.2486C40.7842 34.9412 41.2886 35.8963 41.4183 36.9344L41.9779 41.4052C42.0282 41.808 41.9923 42.2169 41.8726 42.6047C41.7528 42.9925 41.5519 43.3504 41.2833 43.6547C41.0146 43.9589 40.6843 44.2026 40.3143 44.3694C39.9443 44.5362 39.543 44.6225 39.1371 44.6224H19.8629C19.457 44.6225 19.0557 44.5362 18.6857 44.3694C18.3157 44.2026 17.9854 43.9589 17.7167 43.6547C17.4481 43.3504 17.2472 42.9925 17.1274 42.6047C17.0077 42.2169 16.9718 41.808 17.0221 41.4052L17.5802 36.9344C17.71 35.8958 18.2148 34.9403 18.9997 34.2477C19.7845 33.5551 20.7953 33.1731 21.8421 33.1735H22.3444" stroke="black" stroke-width="2" stroke-linecap="round" stroke-linejoin="round"/>
</svg>
