<svg width="30" height="30" viewBox="0 0 30 30" fill="none" xmlns="http://www.w3.org/2000/svg">
<path d="M30 30H29C24.8897 29.9998 20.9172 28.5179 17.8109 25.8261L16.7593 24.9146C16.1746 24.9714 15.5875 24.9999 15 25C11.0296 25 7.28844 23.7231 4.46575 21.4044C1.58594 19.0389 0 15.8766 0 12.5C0 9.12344 1.58594 5.96106 4.46575 3.59556C7.28844 1.27694 11.0296 0 15 0C18.9704 0 22.7116 1.27694 25.5343 3.59556C28.4141 5.96106 30 9.12344 30 12.5C29.9986 14.2949 29.5456 16.0606 28.6827 17.6344C27.9337 19.0052 26.9362 20.2246 25.7411 21.2305C26.6342 23.5015 27.9841 25.5649 29.7071 27.293L30 27.5858V30ZM17.4035 22.8264L19.1208 24.3148C21.4894 26.3674 24.4385 27.6313 27.5583 27.931C25.8369 26.0069 24.5076 23.7653 23.6448 21.3321L23.3701 20.5531L23.9456 20.1114C26.5602 18.1049 28 15.4018 28 12.5C28 6.71025 22.1682 2 15 2C7.83181 2 2 6.71025 2 12.5C2 18.2898 7.83181 23 15 23C15.656 22.9999 16.3114 22.96 16.9625 22.8804L17.4035 22.8264Z" fill="#989898"/>
</svg>
