<svg width="26" height="24" viewBox="0 0 26 24" fill="none" xmlns="http://www.w3.org/2000/svg">
<path d="M13.2022 1.75C14.0588 1.74995 14.883 2.06755 15.5057 2.63767C16.1283 3.20779 16.5023 3.98719 16.5508 4.816L16.5559 5H21.9735C22.1696 5.00006 22.3583 5.07224 22.5016 5.20197C22.6449 5.3317 22.732 5.5093 22.7454 5.69888C22.7587 5.88846 22.6973 6.07589 22.5736 6.2233C22.4499 6.37071 22.273 6.4671 22.0787 6.493L21.9735 6.5H21.1521L19.8312 19.52C19.765 20.1691 19.4629 20.7743 18.9788 21.2275C18.4947 21.6806 17.8602 21.9523 17.1885 21.994L17.0069 22H9.39752C8.72416 22 8.07274 21.7679 7.55969 21.3453C7.04664 20.9227 6.70538 20.337 6.59691 19.693L6.57317 19.519L5.25129 6.5H4.43092C4.2439 6.49999 4.0632 6.43436 3.92226 6.31523C3.78131 6.19611 3.68964 6.03155 3.66421 5.852L3.65698 5.75C3.65699 5.56876 3.72472 5.39366 3.84765 5.25707C3.97057 5.12048 4.14038 5.03165 4.32566 5.007L4.43092 5H9.84847C9.84847 4.13805 10.2018 3.3114 10.8308 2.7019C11.4597 2.09241 12.3127 1.75 13.2022 1.75V1.75ZM19.597 6.5H6.80639L8.11382 19.372C8.14277 19.6592 8.27338 19.9279 8.48348 20.1324C8.69358 20.3369 8.97022 20.4647 9.26647 20.494L9.39752 20.5H17.0069C17.626 20.5 18.1513 20.075 18.271 19.498L18.2916 19.372L19.5959 6.5H19.597ZM15.008 9.25C15.1951 9.25001 15.3758 9.31564 15.5167 9.43477C15.6577 9.55389 15.7493 9.71845 15.7748 9.898L15.782 10V17C15.7819 17.19 15.7074 17.3729 15.5736 17.5118C15.4397 17.6506 15.2564 17.7351 15.0608 17.748C14.8652 17.761 14.6718 17.7015 14.5196 17.5816C14.3675 17.4617 14.2681 17.2902 14.2413 17.102L14.2341 17V10C14.2341 9.80109 14.3156 9.61032 14.4608 9.46967C14.6059 9.32902 14.8028 9.25 15.008 9.25ZM11.3963 9.25C11.5834 9.25001 11.7641 9.31564 11.905 9.43477C12.046 9.55389 12.1376 9.71845 12.1631 9.898L12.1703 10V17C12.1702 17.19 12.0957 17.3729 11.9619 17.5118C11.828 17.6506 11.6447 17.7351 11.4491 17.748C11.2535 17.761 11.0601 17.7015 10.9079 17.5816C10.7558 17.4617 10.6564 17.2902 10.6296 17.102L10.6224 17V10C10.6224 9.80109 10.7039 9.61032 10.8491 9.46967C10.9942 9.32902 11.1911 9.25 11.3963 9.25ZM13.2022 3.25C12.749 3.25002 12.3124 3.41517 11.979 3.71268C11.6456 4.01019 11.4398 4.4183 11.4025 4.856L11.3963 5H15.008C15.008 4.53587 14.8178 4.09075 14.4791 3.76256C14.1405 3.43437 13.6811 3.25 13.2022 3.25Z" fill="black"/>
</svg>
