<svg width="20" height="20" viewBox="0 0 20 20" fill="none" xmlns="http://www.w3.org/2000/svg">
<path d="M10.9882 6.51818C9.89412 6.51818 9 5.81818 9 4.97273C9 4.56526 9.20948 4.17448 9.58234 3.88635C9.95521 3.59823 10.4609 3.43636 10.9882 3.43636C12.0941 3.43636 12.9882 4.12727 12.9882 4.97273C12.9882 5.81818 12.0941 6.51818 10.9882 6.51818ZM7.41177 17.2091L0.435294 16.1364L0.835294 14.5909L5.71765 15.3636L7.30588 9.12727L5.51765 9.67273V12.2727H3.52941V8.67273L8.70588 6.97273L9.49412 6.9C10.2 6.9 10.7882 7.20909 11.1765 7.67273L12.1882 8.9C12.9882 10 14.5765 10.7455 16.4706 10.7455V12.2727C14.2824 12.2727 12.2824 11.5182 10.9882 10.3636L10.4 12.6727L12.4824 14.2091V20H10.4941V15.3636L8.4 13.8273L7.41177 17.2091ZM20 20H17.6471V1.81818H2.35294V13.7364L0 13.3545V0H20V20ZM2.35294 20H0V17.0727L2.35294 17.4545V20Z" fill="white"/>
</svg>
