<svg width="30" height="30" viewBox="0 0 30 30" fill="none" xmlns="http://www.w3.org/2000/svg">
<circle cx="15" cy="15" r="15" fill="#E9ECF2"/>
<path d="M14.7499 15.1556C16.7259 15.1556 18.3277 13.5538 18.3277 11.5778C18.3277 9.60183 16.7259 8 14.7499 8C12.774 8 11.1721 9.60183 11.1721 11.5778C11.1721 13.5538 12.774 15.1556 14.7499 15.1556Z" stroke="black" stroke-width="2"/>
<path d="M18.3278 16.5868H18.5797C19.1028 16.5869 19.6079 16.7781 20 17.1244C20.3921 17.4706 20.6443 17.9482 20.7092 18.4673L20.989 20.7027C21.0141 20.9041 20.9962 21.1085 20.9363 21.3024C20.8764 21.4963 20.776 21.6753 20.6416 21.8274C20.5073 21.9795 20.3422 22.1013 20.1572 22.1848C19.9722 22.2682 19.7715 22.3113 19.5686 22.3113H9.93143C9.72848 22.3113 9.52785 22.2682 9.34284 22.1848C9.15784 22.1013 8.99269 21.9795 8.85836 21.8274C8.72403 21.6753 8.62359 21.4963 8.56371 21.3024C8.50383 21.1085 8.48588 20.9041 8.51105 20.7027L8.79011 18.4673C8.85501 17.9479 9.1074 17.4702 9.49983 17.1239C9.89225 16.7776 10.3977 16.5866 10.921 16.5868H11.1722" stroke="black" stroke-width="2" stroke-linecap="round" stroke-linejoin="round"/>
</svg>
