<svg width="130" height="130" viewBox="0 0 130 130" fill="none" xmlns="http://www.w3.org/2000/svg">
<circle cx="65" cy="65" r="65" fill="#E9ECF2"/>
<path d="M63.9164 65.6742C72.4789 65.6742 79.4201 58.7329 79.4201 50.1704C79.4201 41.6079 72.4789 34.6666 63.9164 34.6666C55.3539 34.6666 48.4126 41.6079 48.4126 50.1704C48.4126 58.7329 55.3539 65.6742 63.9164 65.6742Z" stroke="black" stroke-width="2"/>
<path d="M79.4204 71.8759H80.5118C82.7787 71.8765 84.9674 72.7049 86.6666 74.2054C88.3658 75.7059 89.4586 77.7752 89.7397 80.0246L90.9521 89.7114C91.0611 90.584 90.9833 91.4699 90.7238 92.3102C90.4643 93.1504 90.0291 93.9259 89.447 94.5851C88.8649 95.2444 88.1493 95.7722 87.3476 96.1337C86.5459 96.4952 85.6765 96.6821 84.7971 96.6819H43.0361C42.1567 96.6821 41.2873 96.4952 40.4856 96.1337C39.6839 95.7722 38.9682 95.2444 38.3861 94.5851C37.8041 93.9259 37.3688 93.1504 37.1093 92.3102C36.8499 91.4699 36.7721 90.584 36.8811 89.7114L38.0904 80.0246C38.3716 77.7742 39.4653 75.704 41.1658 74.2033C42.8663 72.7027 45.0565 71.875 47.3245 71.8759H48.4128" stroke="black" stroke-width="2" stroke-linecap="round" stroke-linejoin="round"/>
</svg>
