<?xml version="1.0" encoding="UTF-8"?>
<!DOCTYPE svg PUBLIC "-//W3C//DTD SVG 1.1//EN" "http://www.w3.org/Graphics/SVG/1.1/DTD/svg11.dtd">
<!-- Creator: CorelDRAW 2021.5 (Оценочная версия) -->
<svg xmlns="http://www.w3.org/2000/svg" xml:space="preserve" width="208.751mm" height="55.584mm" version="1.1" style="shape-rendering:geometricPrecision; text-rendering:geometricPrecision; image-rendering:optimizeQuality; fill-rule:evenodd; clip-rule:evenodd"
viewBox="0 0 20875.1 5558.4"
 xmlns:xlink="http://www.w3.org/1999/xlink"
 xmlns:xodm="http://www.corel.com/coreldraw/odm/2003">
 <defs>
  <style type="text/css">
   <![CDATA[
    .str0 {stroke:#2B2B2A;stroke-width:50;stroke-miterlimit:22.9256}
    .str1 {stroke:#2B2B2A;stroke-width:20;stroke-miterlimit:22.9256}
    .fil0 {fill:none}
    .fil2 {fill:none;fill-rule:nonzero}
    .fil1 {fill:#2B2B2A;fill-rule:nonzero}
   ]]>
  </style>
 </defs>
 <g id="Слой_x0020_1">
  <metadata id="CorelCorpID_0Corel-Layer"/>
  <polygon class="fil0 str0" points="12.09,26.49 20073.46,26.49 20073.46,4762.15 12.09,4762.15 "/>
  <line class="fil0 str1" x1="20073.46" y1="26.49" x2="20887.22" y2= "1002.67" />
  <line class="fil0 str1" x1="20887.22" y1="1002.67" x2="20836.97" y2= "5433.02" />
  <line class="fil0 str1" x1="20073.46" y1="4762.15" x2="20836.97" y2= "5433.02" />
  <line class="fil0 str0" x1="20836.97" y1="5433.02" x2="634.66" y2= "5584.08" />
  <line class="fil0 str1" x1="12.09" y1="4762.15" x2="634.66" y2= "5584.08" />
  <path class="fil1" d="M4999.68 1979.53l-291.94 0 0 -416.1 1106 0 0 416.1 -291.95 0 0 1169.78 -522.11 0 0 -1169.78zm1841.71 -416.1l379.74 0 600.49 1585.88 -498.4 0 -52.22 -142.67 -479.43 0 -52.23 142.67 -498.39 0 600.44 -1585.88zm296.7 1093.7l-106.81 -278.18 -106.8 278.18 213.61 0zm1193.83 -1093.7l526.86 0 0 1169.78 436.72 0 0 416.1 -963.58 0 0 -1585.88zm1521.34 0l512.61 0 0 366.14 299.05 -366.14 619.46 0 -557.73 725.16 586.23 860.72 -609.99 0 -337.02 -489.78 0 489.78 -512.61 0 0 -1585.88zm1981.78 0l932.71 0 0 416.1 -427.21 0 0 175.91 420.11 0 0 394.7 -420.11 0 0 183.07 443.82 0 0 416.1 -949.32 0 0 -1585.88zm1566.42 0l545.87 0c101.25,0 194.98,13.48 281.22,40.39 86.24,26.96 161,66.6 224.28,118.92 63.29,52.27 112.74,116.89 148.35,193.77 35.62,76.88 53.4,165.25 53.4,265.09 0,79.27 -11.06,146.63 -33.22,202.11 -22.16,55.47 -46.67,101.43 -73.58,137.91 -31.66,41.2 -67.24,76.08 -106.8,104.59l296.69 523.1 -593.34 0 -237.37 -401.82 0 401.82 -505.5 0 0 -1585.88zm505.5 779.84l26.12 0c60.13,0 111.13,-13.44 153.09,-40.4 41.93,-26.96 62.87,-72.12 62.87,-135.51 0,-63.44 -20.94,-108.6 -62.87,-135.56 -41.96,-26.91 -92.96,-40.39 -153.09,-40.39l-26.12 0 0 351.86z"/>
  <line class="fil2 str1" x1="20073.46" y1="1145.6" x2="20876.46" y2= "1951.14" />
  <line class="fil2 str1" x1="20073.46" y1="2394.32" x2="20863.88" y2= "3059.25" />
  <line class="fil2 str1" x1="20073.46" y1="3612.59" x2="20850.18" y2= "4267.41" />
  <line class="fil2 str1" x1="925.17" y1="4762.15" x2="1628.76" y2= "5576.66" />
  <line class="fil2 str1" x1="2181.57" y1="4762.15" x2="2835.63" y2= "5567.61" />
  <line class="fil2 str1" x1="3329.23" y1="4770.37" x2="4032.83" y2= "5584.88" />
  <line class="fil2 str1" x1="4543.59" y1="4770.37" x2="5197.65" y2= "5575.82" />
  <line class="fil2 str1" x1="5691.25" y1="4737.26" x2="6394.84" y2= "5551.77" />
  <line class="fil2 str1" x1="6947.65" y1="4737.26" x2="7601.71" y2= "5542.71" />
  <line class="fil2 str1" x1="8019.29" y1="4715.78" x2="8641.86" y2= "5537.7" />
  <line class="fil2 str1" x1="8974.42" y1="4715.78" x2="9678.01" y2= "5530.28" />
  <line class="fil2 str1" x1="10230.82" y1="4715.78" x2="10884.88" y2= "5521.23" />
  <line class="fil2 str1" x1="11378.48" y1="4723.99" x2="12082.07" y2= "5538.5" />
  <line class="fil2 str1" x1="12592.83" y1="4723.99" x2="13246.89" y2= "5529.44" />
  <line class="fil2 str1" x1="13756.85" y1="4712.03" x2="14379.42" y2= "5533.95" />
  <line class="fil2 str1" x1="14669.93" y1="4712.03" x2="15373.52" y2= "5526.54" />
  <line class="fil2 str1" x1="15926.33" y1="4712.03" x2="16580.39" y2= "5517.48" />
  <line class="fil2 str1" x1="17073.99" y1="4720.24" x2="17777.59" y2= "5534.75" />
  <line class="fil2 str1" x1="18162.2" y1="4720.24" x2="18816.26" y2= "5525.69" />
  <line class="fil2 str1" x1="19171.36" y1="4720.24" x2="19825.42" y2= "5525.69" />
 </g>
</svg>
