<svg width="100" height="100" viewBox="0 0 100 100" fill="none" xmlns="http://www.w3.org/2000/svg">
<path d="M12.6163 2.0768L50 39.4591L87.2298 2.23063C87.8823 1.53619 88.6683 0.980667 89.5406 0.597365C90.413 0.214062 91.3538 0.0108789 92.3066 0C94.3467 0 96.3032 0.810388 97.7458 2.25289C99.1883 3.69539 99.9988 5.65184 99.9988 7.69184C100.017 8.63487 99.8417 9.57163 99.4846 10.4446C99.1274 11.3176 98.5957 12.1084 97.9219 12.7685L60.3074 49.997L97.9219 87.6101C99.1897 88.8503 99.9331 90.5298 99.9988 92.3021C99.9988 94.3421 99.1883 96.2985 97.7458 97.741C96.3032 99.1835 94.3467 99.9939 92.3066 99.9939C91.3263 100.035 90.3482 99.871 89.4345 99.5134C88.5208 99.1559 87.6915 98.6123 86.9991 97.9171L50 60.5348L12.6932 97.8402C12.0433 98.5115 11.2669 99.0474 10.4087 99.4171C9.55055 99.7867 8.62769 99.9828 7.69337 99.9939C5.65329 99.9939 3.69677 99.1835 2.25422 97.741C0.811668 96.2985 0.00125155 94.3421 0.00125155 92.3021C-0.0166826 91.359 0.15829 90.4223 0.515431 89.5493C0.872573 88.6763 1.40435 87.8855 2.07812 87.2255L39.6926 49.997L2.07812 12.3839C0.810346 11.1436 0.0669393 9.46413 0.00125155 7.69184C0.00125155 5.65184 0.811668 3.69539 2.25422 2.25289C3.69677 0.810388 5.65329 0 7.69337 0C9.53947 0.0230755 11.3087 0.769184 12.6163 2.0768Z" fill="#FFDF83"/>
</svg>
